<?xml version="1.0" standalone="no"?>
<!DOCTYPE svg PUBLIC "-//W3C//DTD SVG 20010904//EN"
 "http://www.w3.org/TR/2001/REC-SVG-20010904/DTD/svg10.dtd">
<svg version="1.0" xmlns="http://www.w3.org/2000/svg"
  viewBox="0 0 1280.000000 1280.000000"
 preserveAspectRatio="xMidYMid meet">
<metadata>
Created by potrace 1.15, written by Peter Selinger 2001-2017
</metadata>
<g transform="translate(0.000000,1280.000000) scale(0.100000,-0.100000)"
fill="#f02618" stroke="none">
<path d="M6100 12794 c-1387 -80 -2630 -549 -3690 -1392 -1275 -1015 -2115
-2486 -2344 -4102 -49 -341 -60 -509 -60 -900 0 -391 11 -559 60 -900 229
-1616 1069 -3087 2344 -4102 902 -717 1955 -1171 3090 -1332 340 -49 509 -60
900 -60 391 0 560 11 900 60 1376 195 2640 827 3624 1810 983 984 1616 2249
1810 3624 49 341 60 509 60 900 0 391 -11 559 -60 900 -229 1618 -1069 3087
-2346 4103 -992 789 -2151 1252 -3433 1372 -161 15 -710 27 -855 19z m857 -38
c369 -36 661 -86 1005 -171 1521 -380 2872 -1334 3745 -2645 559 -840 904
-1775 1027 -2785 33 -270 40 -400 40 -755 0 -421 -15 -626 -75 -1005 -275
-1747 -1284 -3320 -2759 -4302 -840 -559 -1773 -903 -2785 -1027 -267 -33
-409 -41 -755 -41 -414 0 -627 16 -1005 76 -1747 275 -3320 1284 -4302 2759
-559 840 -904 1775 -1027 2785 -33 270 -40 400 -40 755 0 421 15 626 75 1005
375 2380 2078 4353 4385 5080 515 163 993 248 1614 289 123 8 715 -4 857 -18z"/>
<path d="M6185 12614 c-857 -37 -1615 -217 -2375 -564 -291 -133 -643 -333
-910 -518 -867 -600 -1556 -1387 -2024 -2310 -115 -229 -164 -336 -238 -522
-245 -616 -383 -1238 -429 -1924 -15 -225 -6 -763 16 -971 83 -787 274 -1463
605 -2140 905 -1846 2666 -3132 4684 -3420 701 -99 1433 -78 2116 61 1687 344
3164 1381 4058 2847 481 787 770 1634 876 2562 54 470 47 1050 -19 1535 -333
2450 -2112 4485 -4496 5145 -363 100 -735 167 -1124 200 -170 15 -590 26 -740
19z m600 -1419 c637 -54 1185 -207 1745 -486 478 -239 871 -520 1246 -894 419
-418 735 -867 976 -1387 744 -1606 549 -3489 -506 -4907 l-78 -103 -141 138
c-78 77 -606 601 -1174 1166 l-1031 1026 -4 189 -4 188 -76 280 c-42 154 -115
426 -162 605 -47 179 -148 561 -225 850 -76 289 -138 526 -136 528 1 1 115
-65 252 -147 l249 -150 56 -198 c239 -832 449 -1557 452 -1560 5 -5 669 167
678 175 4 4 -20 104 -52 222 -61 226 -116 431 -355 1320 -81 300 -150 548
-153 551 -4 4 -323 185 -709 403 l-703 398 -56 -13 c-52 -12 -60 -18 -111 -81
-72 -91 -181 -177 -296 -233 -124 -61 -189 -76 -338 -82 -144 -6 -235 9 -355
57 -71 28 -78 29 -125 17 l-50 -12 -168 -375 c-92 -206 -171 -375 -174 -375
-9 0 -1857 1835 -1857 1844 0 12 239 188 385 284 321 210 709 400 1070 524
382 131 813 215 1255 246 133 10 525 5 675 -8z m-2201 -3743 c0 -4 -156 -115
-345 -249 -189 -133 -343 -247 -341 -253 1 -6 79 -124 173 -261 108 -158 176
-248 184 -245 7 2 189 122 404 265 215 144 394 262 399 263 5 2 242 -228 527
-510 l518 -513 -471 -465 -471 -465 -541 -976 c-355 -639 -538 -979 -532 -985
11 -11 645 -369 647 -365 1 1 238 424 526 940 l524 938 330 317 c182 174 376
361 433 416 l103 100 195 -194 195 -195 -2 -435 -2 -435 345 -948 c190 -521
348 -950 350 -952 4 -4 659 228 678 240 4 2 -33 120 -82 262 -50 142 -129 373
-178 513 -48 140 -140 406 -204 590 -64 184 -115 345 -114 358 2 18 149 -124
791 -765 433 -433 787 -789 787 -790 0 -6 -280 -211 -370 -270 -1125 -741
-2488 -976 -3795 -653 -1170 289 -2190 1015 -2859 2035 -775 1180 -988 2635
-586 4007 155 532 445 1106 771 1528 l70 91 972 -967 c535 -531 972 -969 971
-972z m1361 312 c30 -109 53 -199 52 -201 -2 -1 -50 44 -106 101 l-104 104 16
39 c34 85 81 176 84 166 3 -7 29 -101 58 -209z"/>
<path d="M5985 10550 c-146 -26 -269 -87 -371 -183 -150 -140 -224 -311 -224
-517 0 -206 74 -377 224 -517 132 -124 286 -185 471 -187 129 -1 190 12 301
64 194 90 326 243 390 455 25 84 25 286 0 370 -46 151 -139 290 -250 374 -65
49 -197 113 -268 130 -67 16 -213 22 -273 11z"/>
</g>
</svg>
