<?xml version="1.0" encoding="iso-8859-1"?>
<!-- Uploaded to: SVG Repo, www.svgrepo.com, Generator: SVG Repo Mixer Tools -->
<svg xmlns="http://www.w3.org/2000/svg" viewBox="0 0 595.28 919.39" xmlSpace="preserve" fill="#f02618">
	<g>
		<path d="M32.759,0C14.696,0,0,14.695,0,32.759s14.695,32.759,32.759,32.759s32.759-14.695,32.759-32.759S50.822,0,32.759,0z
		 M6,32.759C6,18.004,18.004,6,32.759,6c6.648,0,12.734,2.443,17.419,6.472L12.472,50.178C8.443,45.493,6,39.407,6,32.759z
		 M32.759,59.518c-5.948,0-11.447-1.953-15.895-5.248l37.405-37.405c3.295,4.448,5.248,9.947,5.248,15.895
		C59.518,47.514,47.514,59.518,32.759,59.518z" />

		<path
			d="M152,80a32,32,0,1,0-32-32A32,32,0,0,0,152,80Zm0-48a16,16,0,1,1-16,16A16,16,0,0,1,152,32Zm64,112a8,8,0,0,1-8,8c-35.31,0-52.95-17.81-67.12-32.12-2.74-2.77-5.36-5.4-8-7.84l-13.43,30.88,37.2,26.57A8,8,0,0,1,160,176v56a8,8,0,0,1-16,0V180.12l-31.07-22.2L79.34,235.19A8,8,0,0,1,72,240a7.84,7.84,0,0,1-3.19-.67,8,8,0,0,1-4.15-10.52l54.08-124.37c-9.31-1.65-20.92,1.2-34.7,8.58a163.88,163.88,0,0,0-30.57,21.77,8,8,0,0,1-10.95-11.66c2.5-2.35,61.69-57.23,98.72-25.08,3.83,3.32,7.48,7,11,10.57C166.19,122.7,179.36,136,208,136A8,8,0,0,1,216,144Z">
		</path>
	</g>
</svg>